<?xml version="1.0" standalone="no"?>
<!DOCTYPE svg PUBLIC "-//W3C//DTD SVG 20010904//EN"
 "http://www.w3.org/TR/2001/REC-SVG-20010904/DTD/svg10.dtd">
<svg version="1.0" xmlns="http://www.w3.org/2000/svg"
 width="32.000000pt" height="31.000000pt" viewBox="0 0 32.000000 31.000000"
 preserveAspectRatio="xMidYMid meet">

<g transform="translate(0.000000,31.000000) scale(0.100000,-0.100000)"
fill="#000000" stroke="none">
<path d="M120 290 c0 -5 -7 -7 -15 -4 -25 10 -38 -6 -18 -22 13 -11 14 -14 3
-12 -9 2 -14 -3 -12 -12 2 -11 -1 -11 -12 3 -12 15 -15 15 -26 2 -10 -12 -9
-15 5 -15 13 0 15 -3 6 -13 -6 -8 -7 -18 -3 -23 4 -4 0 -3 -9 4 -14 10 -18 10
-23 -4 -9 -23 -8 -27 9 -20 14 5 16 1 14 -21 0 -5 -7 -7 -16 -5 -11 3 -14 -1
-9 -13 3 -9 6 -19 6 -22 0 -3 6 -1 13 5 10 8 13 6 14 -9 1 -10 -3 -19 -9 -19
-6 0 -6 -6 2 -15 8 -9 21 -13 34 -10 20 6 20 5 3 -9 -18 -14 -18 -15 0 -24 10
-5 24 -7 32 -4 8 3 11 0 7 -7 -10 -15 27 -14 42 1 9 9 12 8 12 -5 0 -11 5 -14
15 -11 13 5 13 9 3 22 -11 13 -11 14 1 8 8 -5 17 -3 22 5 7 11 9 10 9 -3 0
-18 11 -23 23 -11 4 3 1 13 -5 21 -10 12 -7 13 17 10 16 -2 30 2 32 10 3 6 -2
12 -11 12 -9 0 -16 5 -16 10 0 9 8 12 26 9 7 -1 24 22 24 33 0 4 -7 5 -15 2
-19 -8 -19 0 0 20 15 14 10 50 -5 41 -5 -3 -11 -1 -15 5 -3 5 -1 10 4 10 19 0
12 22 -8 27 -11 3 -22 14 -24 25 -4 15 -11 18 -28 13 -14 -5 -19 -4 -15 4 13
20 -24 24 -40 5 -12 -17 -13 -17 -8 -1 5 13 1 17 -15 17 -12 0 -21 -4 -21 -10z
m85 -149 c3 -5 2 -12 -3 -15 -5 -3 -9 1 -9 9 0 17 3 19 12 6z"/>
</g>
</svg>
